<svg xmlns="http://www.w3.org/2000/svg" viewBox="0 0 64 64" fill="none">
  <!-- Acorn cap -->
  <path d="M32 8C22 8 14 14 14 22h36c0-8-8-14-18-14z" fill="#BF360C"/>
  <path d="M14 22c0 2 1 4 3 5h30c2-1 3-3 3-5H14z" fill="#8D6E63"/>
  <!-- Cap texture lines -->
  <path d="M20 14c2-1 5-2 8-2M36 12c3 0 6 1 8 3" stroke="#A1887F" stroke-width="1.5" stroke-linecap="round"/>
  <!-- Stem -->
  <rect x="30" y="4" width="4" height="6" rx="2" fill="#795548"/>
  <!-- Acorn body -->
  <path d="M17 27c0 0-1 18 15 29 16-11 15-29 15-29H17z" fill="#FF5722"/>
  <!-- Body highlight -->
  <path d="M24 30c0 0-1 12 8 20" stroke="#FF8A65" stroke-width="2" stroke-linecap="round" opacity="0.6"/>
</svg>
